<?xml version="1.0" encoding="UTF-8" standalone="no"?>
<!-- Created with Inkscape (http://www.inkscape.org/) -->

<svg
   xmlns:dc="http://purl.org/dc/elements/1.1/"
   xmlns:cc="http://creativecommons.org/ns#"
   xmlns:rdf="http://www.w3.org/1999/02/22-rdf-syntax-ns#"
   xmlns:svg="http://www.w3.org/2000/svg"
   xmlns="http://www.w3.org/2000/svg"
   xmlns:sodipodi="http://sodipodi.sourceforge.net/DTD/sodipodi-0.dtd"
   xmlns:inkscape="http://www.inkscape.org/namespaces/inkscape"
   width="42.333332mm"
   height="42.333332mm"
   viewBox="0 0 150 149.99999"
   id="svg4876"
   version="1.1"
   inkscape:version="0.91 r13725"
   sodipodi:docname="Lenin.svg">
  <defs
     id="defs4878" />
  <sodipodi:namedview
     id="base"
     pagecolor="#ffffff"
     bordercolor="#666666"
     borderopacity="1.0"
     inkscape:pageopacity="0.0"
     inkscape:pageshadow="2"
     inkscape:zoom="4.2730939"
     inkscape:cx="72.263807"
     inkscape:cy="70.990438"
     inkscape:document-units="px"
     inkscape:current-layer="layer1"
     showgrid="false"
     fit-margin-top="0"
     fit-margin-left="0"
     fit-margin-right="0"
     fit-margin-bottom="0"
     inkscape:window-width="1920"
     inkscape:window-height="1027"
     inkscape:window-x="-8"
     inkscape:window-y="-8"
     inkscape:window-maximized="1" />
  <metadata
     id="metadata4881">
    <rdf:RDF>
      <cc:Work
         rdf:about="">
        <dc:format>image/svg+xml</dc:format>
        <dc:type
           rdf:resource="http://purl.org/dc/dcmitype/StillImage" />
        <dc:title></dc:title>
      </cc:Work>
    </rdf:RDF>
  </metadata>
  <g
     inkscape:label="Layer 1"
     inkscape:groupmode="layer"
     id="layer1"
     transform="translate(-222.83992,-163.80703)">
    <rect
       style="opacity:1;fill:#d50000;fill-opacity:1;stroke:#2962ff;stroke-width:0;stroke-linecap:round;stroke-linejoin:round;stroke-miterlimit:4;stroke-dasharray:none;stroke-dashoffset:0;stroke-opacity:1"
       id="rect5519"
       width="149.99998"
       height="149.99998"
       x="222.83992"
       y="163.80704" />
    <path
       inkscape:connector-curvature="0"
       id="path5503"
       d="m 305.16496,268.749 c -0.067,-0.20235 1.1443,-1.68735 2.6918,-3.3 4.07098,-4.24235 5.79303,-6.57878 7.29359,-9.89572 1.1724,-2.59156 1.32896,-3.1897 1.33321,-5.09367 0.005,-2.33593 -0.36629,-2.96766 -1.16133,-1.97473 -0.53519,0.66839 -3.61494,2.78203 -4.05366,2.78203 -0.32848,0 -14.28018,6.87827 -14.28018,7.04022 0,0.061 0.45313,0.39089 1.00696,0.73318 1.62052,1.00153 2.62076,2.1548 3.53565,4.0766 0.47131,0.99 0.85702,1.95361 0.85715,2.14135 1.3e-4,0.18774 -0.77601,0.80273 -1.72476,1.36665 -1.34993,0.80237 -1.725,1.18475 -1.725,1.75865 0,0.52154 -0.186,0.75986 -0.644,0.82515 l 2.09295,0.4332 c 0.36059,-0.49258 3.53361,-0.49258 4.17359,0 -0.33897,0.11928 0.95801,-0.83105 0.60403,-0.89291 z m -13.71809,0.39915 c 0.69863,-0.51085 0.76539,-2.37269 0.1577,-4.39837 -0.56959,-1.89866 -0.23514,-2.88521 1.54759,-4.56498 0.83627,-0.78799 1.46772,-1.47246 1.4032,-1.52105 -0.0645,-0.0486 -0.8598,-0.44368 -1.7673,-0.87798 -0.90811,-0.43459 -2.84078,-1.88293 -4.29835,-3.22117 -2.57486,-2.36405 -3.42383,-2.7816 -3.28325,-1.61481 0.0376,0.31224 0.12488,1.52954 0.19392,2.70511 0.11183,1.90428 1.18569,5.7953 2.04787,7.42027 0.25871,0.48759 1.16371,5.32161 1.09456,5.84651 -0.0704,0.53413 0.13506,0.64582 1.18791,0.64582 0.62846,0 1.40073,-0.18871 1.71615,-0.41935 z m -12.08811,-18.76842 c 0.70361,-0.15828 2.0688,-0.45302 3.03373,-0.65498 0.96494,-0.20196 2.06991,-0.61535 2.45548,-0.91865 0.38558,-0.30329 1.22778,-0.73729 1.87156,-0.96442 1.16646,-0.41155 1.85641,-0.94338 4.46323,-3.44033 1.31018,-1.25496 1.36702,-1.37856 1.22274,-2.6586 -0.0902,-0.80017 -0.40367,-1.59482 -0.77604,-1.96719 -0.73243,-0.73242 -1.13186,-0.5245 -0.66571,0.34652 0.55373,1.03465 0.36197,1.928 -0.63454,2.95614 -1.6205,1.67193 -2.12507,1.25287 -1.30163,-1.08103 0.53378,-1.51287 0.26349,-2.41377 -1.00566,-3.3521 -0.89776,-0.66374 -1.77348,-2.23798 -1.43386,-2.57759 0.0994,-0.0994 0.59233,-0.0103 1.09535,0.19807 0.59359,0.24587 1.413,0.30466 2.33462,0.16748 0.78102,-0.11625 1.74301,-0.21414 2.13777,-0.21753 0.88942,-0.008 2.87334,-1.41524 3.83352,-2.71989 0.39593,-0.53797 1.42386,-1.39486 2.2843,-1.9042 l 1.56444,-0.92606 0,-1.77394 0,-1.77393 1.05,-0.0866 c 1.77604,-0.14642 1.8651,-0.2419 1.21805,-1.30589 -0.40731,-0.66976 -0.50144,-1.11488 -0.31102,-1.47068 0.16599,-0.31016 0.15933,-0.90681 -0.017,-1.52157 -0.15953,-0.55624 -0.29005,-1.45098 -0.29005,-1.98832 0,-0.91655 0.065,-0.97698 1.05,-0.97698 1.20598,0 1.21276,-0.0151 0.56828,-1.26133 -0.63726,-1.23234 -0.39361,-2.58038 0.7728,-4.27571 1.47068,-2.13755 1.61444,-2.15804 5.63822,-0.80338 1.93638,0.65192 4.06327,1.32951 4.72642,1.50577 0.81695,0.21713 1.80489,0.90314 3.06397,2.12756 1.02203,0.9939 1.92737,1.80709 2.01185,1.80709 0.32717,0 -0.505,-1.66969 -1.52406,-3.05793 -1.28112,-1.74523 -4.6803,-4.46731 -7.1103,-5.69398 -3.23697,-1.63401 -5.80657,-2.13712 -10.99718,-2.15315 -3.45813,-0.0107 -5.13417,0.11562 -6.53898,0.49273 -2.76686,0.74274 -6.08516,2.36494 -7.56152,3.69656 -1.53213,1.38193 -3.01027,4.28659 -3.76011,7.38894 -0.28938,1.19725 -0.77663,2.53517 -1.08277,2.97314 -0.30614,0.43797 -0.55662,1.00375 -0.55662,1.25729 0,0.25355 -0.15861,0.55902 -0.35247,0.67883 -0.20709,0.12799 0.226,0.38652 1.05,0.62678 0.88201,0.25719 1.40247,0.57957 1.40247,0.86872 0,0.29995 -0.22496,0.42716 -0.64711,0.36593 -0.76742,-0.11131 -1.114,0.57477 -0.42409,0.83951 0.42201,0.16194 0.40105,0.31293 -0.17701,1.27516 -0.36063,0.60031 -1.36695,1.84945 -2.23627,2.77588 -1.16803,1.24477 -1.53827,1.84619 -1.41849,2.30425 0.20253,0.77445 0.87483,1.05103 1.60498,0.66026 0.79613,-0.42607 2.12137,-0.3699 3.60258,0.1527 1.34065,0.47301 2.09541,0.24308 2.09541,-0.63835 0,-0.50903 0.36133,-0.53195 0.84,-0.0533 0.53366,0.53366 0.43666,1.57763 -0.20015,2.15394 -0.41587,0.37635 -1.05337,0.49587 -2.475,0.464 -3.36471,-0.0754 -5.09994,0.5148 -5.53398,1.88235 -0.33,1.03971 0.42809,1.39452 3.23612,1.51459 2.37388,0.10151 2.74074,0.20077 3.94905,1.06851 1.49941,1.0768 2.16189,1.23287 1.83202,0.43161 -0.51102,-1.24129 -0.51477,-1.575 -0.0177,-1.575 0.53116,0 1.36968,1.64706 1.36968,2.69036 0,0.70306 -0.74785,0.80278 -1.94152,0.25891 -0.6784,-0.30909 -0.86895,-0.25569 -1.60553,0.45 -0.45969,0.4404 -0.95602,0.80073 -1.10296,0.80073 -0.14694,0 -0.63775,0.35503 -1.09067,0.78897 -0.93583,0.89657 -1.92246,0.79762 -1.61781,-0.16225 0.10059,-0.31692 0.0424,-0.66305 -0.12932,-0.76918 -0.62371,-0.38548 -0.28951,-0.75754 0.68046,-0.75754 0.54597,0 1.2453,-0.18473 1.55407,-0.41051 0.545,-0.39852 0.5435,-0.42009 -0.0511,-0.7383 -0.33687,-0.18028 -1.27245,-0.28645 -2.07907,-0.23592 l -1.46659,0.0919 0.0813,1.25432 c 0.0945,1.45747 -0.28301,2.31929 -1.1343,2.58948 -0.90112,0.286 -1.49703,1.71273 -1.49703,3.58416 0,1.64811 0.009,1.6649 0.8957,1.6649 0.49263,0 1.47138,-0.1295 2.175,-0.28777 z m 1.7293,-18.45652 c 0,-0.47552 1.38757,-0.96814 1.7385,-0.61721 0.24922,0.24922 -0.78064,1.0615 -1.34584,1.0615 -0.21596,0 -0.39266,-0.19993 -0.39266,-0.44429 z m 8.26943,-2.52428 c -0.0913,-0.14771 0.0357,-0.34597 0.28229,-0.44058 0.24655,-0.0946 0.44828,-0.31126 0.44828,-0.48144 0,-0.48914 -2.147,-0.35987 -2.72601,0.16413 -0.47705,0.43172 -0.58993,0.42984 -1.2785,-0.0213 -0.55661,-0.3647 -0.90363,-0.41545 -1.31939,-0.19295 -0.52186,0.27929 -0.56211,0.17745 -0.53709,-1.35873 0.0306,-1.87505 0.54532,-2.50054 2.05792,-2.50054 0.48524,0 1.33664,-0.28083 1.89202,-0.62407 0.55537,-0.34324 1.61228,-0.66469 2.3487,-0.71434 1.29036,-0.087 1.36165,-0.0467 1.96462,1.11011 0.34411,0.6602 0.54673,1.2793 0.45025,1.37578 -0.0965,0.0965 -0.60902,-0.002 -1.13897,-0.21798 -1.20703,-0.49281 -2.41679,-0.44666 -3.54183,0.13512 -0.94402,0.48819 -1.15666,1.03539 -0.40233,1.03539 0.25816,0 1.13558,0.28659 1.94983,0.63687 1.20043,0.51641 1.56559,0.56621 1.93062,0.26327 0.35915,-0.29807 0.54114,-0.2981 0.90016,-1.4e-4 0.61855,0.51335 0.56553,1.2 -0.0927,1.2 -0.29847,0 -0.80471,0.19821 -1.125,0.44046 -0.65258,0.49358 -1.80968,0.6007 -2.06291,0.19097 z m 19.09146,9.52755 c 0.37901,-0.18755 1.2129,-0.93005 1.85309,-1.65 l 1.16399,-1.30898 -1.98898,0 c -1.75152,0 -1.98899,-0.0678 -1.98899,-0.5679 0,-0.31235 0.2025,-0.64561 0.45,-0.74059 0.5518,-0.21174 0.60428,-1.69151 0.06,-1.69151 -0.71494,0 -1.11,0.70718 -1.11,1.98698 0,0.92338 -0.20936,1.51579 -0.77198,2.18443 -1.04264,1.23911 -0.78018,2.12859 0.62808,2.12859 0.55862,0 1.32577,-0.15346 1.70479,-0.34102 z m 3.96465,-5.03345 c 0.77434,-0.80823 0.82153,-0.99266 0.62313,-2.43519 l -0.21465,-1.56072 -0.75299,0.75299 -0.75299,0.75299 0.56098,0.96492 c 0.55814,0.96004 0.55757,0.96722 -0.11402,1.41879 -0.66826,0.44934 -0.90185,0.98069 -0.43113,0.98069 0.13413,0 0.62088,-0.39351 1.08167,-0.87447 z m -2.8557,-4.16641 c 0.88084,-1.72659 2.59134,-2.33918 3.72519,-1.33412 0.57434,0.5091 0.58166,0.50476 0.24175,-0.14313 -0.68481,-1.30527 -2.34605,-1.65447 -3.94279,-0.82877 -1.36997,0.70844 -1.94557,2.27532 -1.13399,3.0869 0.48561,0.48561 0.45147,0.50962 1.10984,-0.78088 z"
       style="fill:#de9470"
       sodipodi:nodetypes="csscssssssssccccssscsscsscsscsccscsssssccscssccccsscsscsssssssssssssccsssssccssccssssssssssccsssscccsssccssssccsscccsssssccsscsssccsscsscssssssscccssssssssss" />
  </g>
</svg>
